<?xml version="1.0" standalone="no"?>
<!DOCTYPE svg PUBLIC "-//W3C//DTD SVG 20010904//EN"
 "http://www.w3.org/TR/2001/REC-SVG-20010904/DTD/svg10.dtd">
<svg version="1.0" xmlns="http://www.w3.org/2000/svg"
 width="260.000000pt" height="260.000000pt" viewBox="0 0 260.000000 260.000000"
 preserveAspectRatio="xMidYMid meet">
<metadata>
Created by potrace 1.11, written by Peter Selinger 2001-2013
</metadata>
<g transform="translate(0.000000,260.000000) scale(0.100000,-0.100000)"
fill="#000000" stroke="none">
<path d="M235 1866 c-3 -6 -3 -288 -2 -626 l2 -614 137 -1 c115 -1 137 2 140
15 2 8 4 180 3 383 0 202 1 367 3 367 8 0 18 -13 262 -335 96 -126 209 -275
252 -330 l77 -100 140 0 141 -1 0 627 0 627 -140 -1 c-135 0 -140 -1 -141 -21
0 -12 0 -192 0 -401 0 -297 -3 -377 -12 -365 -7 9 -46 60 -88 115 -99 131
-316 416 -332 435 -7 9 -50 65 -96 127 l-84 111 -129 0 c-88 0 -131 -4 -133
-12z"/>
<path d="M1639 1871 c-1 -8 -1 -224 0 -231 1 -3 87 -5 191 -5 105 0 189 -3
188 -7 -3 -7 -22 -30 -155 -186 l-73 -86 0 -103 c0 -57 3 -103 8 -103 4 0 28
7 54 15 72 21 192 15 248 -13 62 -32 83 -64 88 -132 5 -91 -39 -140 -144 -159
-81 -15 -201 20 -321 94 l-41 26 -34 -68 c-18 -37 -35 -70 -38 -73 -3 -3 -13
-22 -23 -44 -21 -45 -22 -43 76 -96 126 -68 239 -95 362 -87 121 8 199 31 267
79 111 78 164 175 172 315 10 173 -86 316 -248 369 -62 20 -62 20 -45 37 8 8
52 58 99 112 47 54 95 110 108 123 27 30 24 17 26 129 2 76 -1 94 -14 97 -25
7 -750 4 -751 -3z"/>
</g>
</svg>
